<svg id="Ebene_1" data-name="Ebene 1" xmlns="http://www.w3.org/2000/svg" width="1099.999" height="200" viewBox="0 0 1099.999 200"><defs><style>.cls-1{fill:#fff;}.cls-2{fill:#e84333;}.cls-3{fill:#1c2747;}</style></defs><title>Leuchtfeuer.com_logo-wide_en_onwhite_RGB</title><g id="Bildmarke_Kreis_Leuchtturm_" data-name="Bildmarke (Kreis + Leuchtturm)"><path id="weiße_Hinterlegung" data-name="weiße Hinterlegung" class="cls-1" d="M187.5,100A87.5,87.5,0,1,0,37.657,161.389,42.722,42.722,0,0,0,43.723,168c10.318,9.083,19.6,19.09,24.739,26.92a99.654,99.654,0,0,0,24.426,4.83c12.515-5.261,39.209-13.65,60.635-30.531A87.347,87.347,0,0,0,187.5,100Z"/><g id="Bildmarke_Kreis_Leuchtturm_2" data-name="Bildmarke (Kreis + Leuchtturm)"><path class="cls-2" d="M100,0A100.014,100.014,0,0,0,68.462,194.92l2.1-18.293a2.164,2.164,0,0,1,.813-1.452L126.7,131.653a2.164,2.164,0,0,1,3.487,1.453l3.8,33a2.165,2.165,0,0,1-.812,1.947L92.888,199.745c2.349.165,4.72.255,7.112.255A100,100,0,0,0,100,0ZM82.773,49.1h1.965V45.42a1.716,1.716,0,0,1,.858-1.485l13.766-7.912V33.245a3.245,3.245,0,1,1,6.489,0v2.778l13.765,7.912a1.714,1.714,0,0,1,.859,1.485V49.1h1.965a3.245,3.245,0,1,1,0,6.49H82.773a3.245,3.245,0,1,1,0-6.49ZM132.215,92.74a3.255,3.255,0,0,1-3.245,3.245h-3.361l.884,7.637a2.166,2.166,0,0,1-.812,1.947L77.817,143.221a2.164,2.164,0,0,1-3.487-1.947l5.226-45.289H76.242A3.255,3.255,0,0,1,73,92.74V85.079a3.254,3.254,0,0,1,3.244-3.245H128.97a3.254,3.254,0,0,1,3.245,3.245Z"/></g></g><g id="Leuchtfeuer.com"><path class="cls-3" d="M284.44,123.46a4.922,4.922,0,0,1,5.225,5.224v7.361a4.922,4.922,0,0,1-5.225,5.225H245.261c-3.087,0-5.224-1.9-5.224-5.343V60.653c0-3.444,2.018-5.343,5.224-5.343h10.091c3.325,0,5.342,1.9,5.342,5.343V123.46Z"/><path class="cls-3" d="M341.788,121.323c4.274.475,5.462,2.493,4.631,5.818-2.138,8.9-10.567,14.722-24.458,14.722-18.166,0-27.545-7.6-27.545-29.326,0-22.439,9.5-30.869,27.663-30.869,19,0,24.221,9.379,25.052,28.02.119,3.562-.475,5.224-5.343,5.224H313.769c.474,9.023,3.561,11.991,8.667,11.991,4.155,0,6.53-1.424,7.717-4.036.95-2.019,1.781-2.613,3.562-2.375Zm-27.663-16.147h16.5c-.237-6.649-2.375-9.973-8.073-9.973C317.806,95.2,314.956,97.458,314.125,105.176Z"/><path class="cls-3" d="M375.15,117.761c0,4.275,1.188,8.905,7.48,8.905,5.462,0,7.837-3.325,7.837-7.6V87.723c0-3.443,2.137-5.343,5.343-5.343h8.547c3.206,0,5.343,1.9,5.343,5.343v48.2c0,3.443-2.137,5.343-5.343,5.343h-6.411c-3.206,0-5.342-1.9-5.342-5.343v-2.375h-.594c-.119.475-3.8,8.311-15.672,8.311-14.011,0-20.422-9.26-20.422-20.3V87.723c0-3.443,2.138-5.343,5.343-5.343h8.549c3.206,0,5.342,1.9,5.342,5.343Z"/><path class="cls-3" d="M467.285,118.355c4.75.712,4.987,4.155,4.868,5.937-1.424,9.735-7.479,17.571-25.645,17.571s-27.663-8.073-27.663-29.8c0-22.439,9.616-30.394,27.663-30.394,18.166,0,24.221,7.836,25.645,18.046.238,1.663.119,5.462-4.749,6.174l-7.717,1.069c-3.206.475-4.511-.237-4.987-2.374-.949-4.394-3.2-7.6-8.192-7.6s-8.311,2.968-8.311,15.078c0,11.042,3.562,14.841,8.548,14.841s7.361-2.374,7.955-7.005c.237-2.137,1.069-3.2,4.275-2.731Z"/><path class="cls-3" d="M534.843,135.927c0,3.443-2.019,5.343-5.343,5.343h-8.549c-3.205,0-5.223-1.9-5.223-5.343V105.888c0-4.274-1.425-8.9-7.6-8.9-5.817,0-7.836,3.443-7.836,8.311v30.632c0,3.443-2.138,5.343-5.343,5.343H486.4c-3.206,0-5.223-1.9-5.223-5.343V59.7c0-3.443,2.017-5.343,5.223-5.343h8.549c3.2,0,5.224,1.9,5.224,5.343V87.485h.356c.118-.474,3.444-5.817,13.891-5.817,14.011,0,20.422,9.379,20.422,20.3Z"/><path class="cls-3" d="M568.325,117.286c0,6.412,2.256,9.38,7.362,9.38,1.068,0,2.375-.119,2.375-.119,3.205-.237,4.749.119,4.749,4.037v5.7c0,3.562-1.544,4.987-5.224,5.342-1.307.12-2.732.238-4.275.238-19.115,0-24.22-7.836-24.22-20.3V97.1h-2.138c-3.561,0-5.343-2.138-5.343-5.343V87.723c0-3.087,1.782-5.343,5.343-5.343h2.138V71.338c0-3.443,2.137-5.342,5.343-5.342h8.547c3.206,0,5.343,1.9,5.343,5.342V82.38h10.448c3.563,0,5.343,2.256,5.343,5.343V91.76c0,3.2-1.78,5.343-5.343,5.343H568.325Z"/><path class="cls-3" d="M593.972,97.1c-3.444,0-5.343-2.019-5.343-5.225V87.6c0-3.206,1.9-5.224,5.343-5.224h2.136V76.8c0-14.129,5.224-23.033,24.933-23.033,2.138,0,4.75.237,4.987.237,3.562.356,5.343,1.425,5.343,5.461v4.393c0,5.7-1.425,5.7-5.105,5.343,0,0-1.307-.118-2.375-.118-5.818,0-8.667,2.374-8.667,8.073V82.38h9.38c3.442,0,5.342,2.018,5.342,5.224v4.274c0,3.206-1.9,5.225-5.342,5.225h-9.38v38.824c0,3.443-2.019,5.343-5.224,5.343h-8.549c-3.206,0-5.343-1.9-5.343-5.343V97.1Z"/><path class="cls-3" d="M681.238,121.323c4.275.475,5.462,2.493,4.631,5.818-2.138,8.9-10.567,14.722-24.458,14.722-18.166,0-27.545-7.6-27.545-29.326,0-22.439,9.5-30.869,27.663-30.869,19,0,24.221,9.379,25.052,28.02.119,3.562-.475,5.224-5.343,5.224H653.219c.474,9.023,3.561,11.991,8.667,11.991,4.155,0,6.53-1.424,7.718-4.036.949-2.019,1.78-2.613,3.561-2.375Zm-27.663-16.147h16.5c-.237-6.649-2.375-9.973-8.073-9.973C657.255,95.2,654.406,97.458,653.575,105.176Z"/><path class="cls-3" d="M714.6,117.761c0,4.275,1.187,8.905,7.479,8.905,5.462,0,7.837-3.325,7.837-7.6V87.723c0-3.443,2.137-5.343,5.343-5.343h8.548c3.206,0,5.342,1.9,5.342,5.343v48.2c0,3.443-2.136,5.343-5.342,5.343H737.4c-3.206,0-5.342-1.9-5.342-5.343v-2.375h-.594c-.119.475-3.8,8.311-15.672,8.311-14.011,0-20.422-9.26-20.422-20.3V87.723c0-3.443,2.138-5.343,5.343-5.343h8.549c3.206,0,5.343,1.9,5.343,5.343Z"/><path class="cls-3" d="M805.667,121.323c4.274.475,5.462,2.493,4.631,5.818-2.138,8.9-10.568,14.722-24.458,14.722-18.166,0-27.545-7.6-27.545-29.326,0-22.439,9.5-30.869,27.663-30.869,19,0,24.221,9.379,25.052,28.02.119,3.562-.475,5.224-5.343,5.224h-28.02c.475,9.023,3.562,11.991,8.667,11.991,4.156,0,6.531-1.424,7.718-4.036.949-2.019,1.78-2.613,3.562-2.375ZM778,105.176h16.5c-.237-6.649-2.375-9.973-8.073-9.973C781.685,95.2,778.835,97.458,778,105.176Z"/><path class="cls-3" d="M820.271,87.723c0-3.443,2.018-5.343,5.224-5.343h6.411c3.206,0,5.343,1.9,5.343,5.343v5.7h.476a18.3,18.3,0,0,1,17.69-11.754h1.068c3.206.119,3.8,1.662,3.8,6.055v6.411c0,4.393-1.425,4.987-3.8,4.749,0,0-1.662-.118-2.968-.118-10.686,0-14.128,6.649-14.128,16.622v20.54c0,3.443-2.138,5.343-5.343,5.343H825.5c-3.206,0-5.224-1.9-5.224-5.343Z"/><path class="cls-3" d="M870.019,119.661a11.1,11.1,0,1,1,0,22.2,11.1,11.1,0,0,1,0-22.2Z"/><path class="cls-3" d="M936.27,118.355c4.75.712,4.987,4.155,4.868,5.937-1.425,9.735-7.48,17.571-25.646,17.571s-27.663-8.073-27.663-29.8c0-22.439,9.616-30.394,27.663-30.394,18.166,0,24.221,7.836,25.646,18.046.237,1.663.119,5.462-4.749,6.174l-7.718,1.069c-3.205.475-4.511-.237-4.986-2.374-.95-4.394-3.206-7.6-8.193-7.6s-8.31,2.968-8.31,15.078c0,11.042,3.561,14.841,8.547,14.841s7.362-2.374,7.956-7.005c.237-2.137,1.068-3.2,4.274-2.731Z"/><path class="cls-3" d="M947.906,112.181c0-20.9,8.548-30.513,27.426-30.513s27.308,9.617,27.308,30.513-8.43,29.682-27.308,29.682S947.906,133.077,947.906,112.181Zm35.5,0c0-10.685-2.493-15.078-8.073-15.078-5.7,0-8.073,4.393-8.073,15.078,0,10.211,2.374,14.722,8.073,14.722C980.912,126.9,983.405,122.392,983.405,112.181Z"/><path class="cls-3" d="M1062.6,90.454c1.424-2.494,6.293-8.786,16.978-8.786,14.01,0,20.422,9.379,20.422,20.3v33.957c0,3.443-2.019,5.343-5.225,5.343h-8.548c-3.205,0-5.343-1.9-5.343-5.343V105.77c0-4.156-1.424-8.786-7.48-8.786-4.274,0-6.648,1.781-7.6,4.749a17.741,17.741,0,0,0-.238,2.612v31.582c0,3.443-2.018,5.343-5.342,5.343h-8.549c-3.2,0-5.224-1.9-5.224-5.343V105.77c0-4.156-1.425-8.786-7.6-8.786-5.462,0-7.718,3.324-7.836,7.6v31.344c0,3.443-2.138,5.343-5.343,5.343h-8.549c-3.206,0-5.224-1.9-5.224-5.343v-48.2c0-3.443,2.018-5.343,5.224-5.343h6.411c3.324,0,5.343,2.018,5.343,5.343v2.256h.475c.356-.832,3.918-8.311,15.791-8.311C1053.694,81.668,1059.394,85.229,1062.6,90.454Z"/></g></svg>
